<?xml version="1.0" encoding="UTF-8" standalone="no"?>
<svg
   width="256"
   height="256"
   version="1.1"
   id="svg3"
   sodipodi:docname="drawing_picker.svg"
   inkscape:version="1.4.2 (ebf0e940d0, 2025-05-08)"
   xmlns:inkscape="http://www.inkscape.org/namespaces/inkscape"
   xmlns:sodipodi="http://sodipodi.sourceforge.net/DTD/sodipodi-0.dtd"
   xmlns="http://www.w3.org/2000/svg"
   xmlns:svg="http://www.w3.org/2000/svg">
  <sodipodi:namedview
     id="namedview3"
     pagecolor="#505050"
     bordercolor="#ffffff"
     borderopacity="1"
     inkscape:showpageshadow="0"
     inkscape:pageopacity="0"
     inkscape:pagecheckerboard="1"
     inkscape:deskcolor="#505050"
     inkscape:zoom="1.1877184"
     inkscape:cx="-249.63829"
     inkscape:cy="489.17318"
     inkscape:window-width="1920"
     inkscape:window-height="1052"
     inkscape:window-x="0"
     inkscape:window-y="0"
     inkscape:window-maximized="1"
     inkscape:current-layer="svg3" />
  <defs
     id="defs2">
    <linearGradient
       gradientUnits="userSpaceOnUse"
       x1="-819.20001"
       x2="819.20001"
       spreadMethod="pad"
       gradientTransform="matrix(-0.00344849,-0.00344849,0.00344849,-0.00344849,22.6,22.6)"
       id="gradient0">
      <stop
         offset="0"
         stop-color="#FFFFFF"
         id="stop1" />
      <stop
         offset="1"
         stop-color="#CCCCCC"
         id="stop2" />
    </linearGradient>
  </defs>
  <g
     id="g3"
     transform="matrix(11.878202,0,0,11.851852,-59.39101,-59.25926)">
    <path
       stroke="none"
       fill="#ffffff"
       d="m 19.05,24.75 -2.8,-0.05 -1.5,-1.5 q -1.3,-1.35 0.05,-2.7 L 7.05,12.7 Q 5.9,11.55 5.9,9.9 L 6,8.8 5.65,8.45 Q 5.05,7.85 5,7.05 5.05,6.2 5.65,5.6 6.25,5 7.05,5 q 0.8,0 1.4,0.6 l 0.3,0.45 1.1,-0.15 q 1.7,0 2.85,1.15 l 7.75,7.8 q 1.35,-1.35 2.8,-0.15 l 0.7,0.7 0.1,0.1 0.7,0.7 q 1.4,1.4 -0.05,2.85 v 0.05 l -5.65,5.65 m -2.8,-5.65 2.8,-2.85 -7.75,-7.8 Q 10.75,7.9 9.95,7.9 H 9.85 L 9.25,8 8.05,7.9 7.75,7.7 7.9,8.05 q 0.2,0.6 0.05,1.25 v 0.6 q 0,0.85 0.55,1.4 l 7.75,7.8"
       id="path2" />
    <path
       stroke="none"
       fill="url(#gradient0)"
       d="m 24.7,19.1 0.7,0.7 q 1.2,1.15 1.15,2.8 0.05,1.65 -1.1,2.8 -1.15,1.2 -2.85,1.2 -1.65,0 -2.85,-1.15 l -0.7,-0.7 5.65,-5.65"
       id="path3"
       style="fill:url(#gradient0)" />
  </g>
</svg>
