{"accessors":[{"bufferView":0,"byteOffset":0,"componentType":5126,"count":144,"max":[0.190211296081543,0.200000002980232,0.190211296081543],"min":[-0.190211296081543,-0.200000002980232,-0.190211296081543],"normalized":false,"type":"VEC3"},{"bufferView":1,"byteOffset":0,"componentType":5126,"count":144,"max":[0.99291980266571,0.193453341722488,0.992925345897675,1.0],"min":[-0.99292129278183,-0.193455368280411,-0.992927312850952,1.0],"normalized":false,"type":"VEC4"},{"bufferView":2,"byteOffset":0,"componentType":5126,"count":144,"max":[0.957372784614563,1.0,0.95737236738205],"min":[-0.957358717918396,-1.0,-0.957376062870026],"normalized":false,"type":"VEC3"},{"bufferView":3,"byteOffset":0,"componentType":5126,"count":144,"max":[2.86577606201172,0.999956607818604],"min":[-2.86577606201172,-9.30722045898438],"normalized":false,"type":"VEC2"},{"bufferView":4,"byteOffset":0,"componentType":5126,"count":144,"max":[1.0,1.0,1.0,1.0],"min":[1.0,1.0,1.0,1.0],"normalized":false,"type":"VEC4"},{"bufferView":5,"byteOffset":0,"componentType":5123,"count":192,"max":[143.0],"min":[0.0],"normalized":false,"type":"SCALAR"}],"asset":{"generator":"Godot Engine v4.4.1.stable.official@49a5bc7b616bd04689a2c89e89bda41f50241464","version":"2.0"},"bufferViews":[{"buffer":0,"byteLength":1728,"byteOffset":0,"byteStride":12,"target":34962},{"buffer":0,"byteLength":2304,"byteOffset":1728,"byteStride":16,"target":34962},{"buffer":0,"byteLength":1728,"byteOffset":4032,"byteStride":12,"target":34962},{"buffer":0,"byteLength":1152,"byteOffset":5760,"byteStride":8,"target":34962},{"buffer":0,"byteLength":2304,"byteOffset":6912,"byteStride":16,"target":34962},{"buffer":0,"byteLength":384,"byteOffset":9216,"target":34963}],"buffers":[{"byteLength":9600,"uri":"marble0.bin"}],"extensionsUsed":["GODOT_single_root"],"materials":[{"extensions":{},"name":"glass","pbrMetallicRoughness":{"baseColorFactor":[0.752407491207123,0.852530241012573,1.0,1.0],"metallicFactor":0.0,"roughnessFactor":1.0}}],"meshes":[{"extras":{"targetNames":[]},"primitives":[{"attributes":{"COLOR_0":4,"NORMAL":2,"POSITION":0,"TANGENT":1,"TEXCOORD_0":3},"indices":5,"material":0,"mode":4}]}],"nodes":[{"children":[1],"name":"Node3D"},{"mesh":0,"name":"Marble-low","scale":[0.25,0.25,0.25]}],"scene":0,"scenes":[{"nodes":[0]}]}